<?xml version="1.0" encoding="utf-8"?>
<!-- Generator: Adobe Illustrator 24.0.1, SVG Export Plug-In . SVG Version: 6.00 Build 0)  -->
<svg version="1.1" id="图层_1" xmlns="http://www.w3.org/2000/svg" xmlns:xlink="http://www.w3.org/1999/xlink" x="0px" y="0px"
	 viewBox="0 0 16 16" style="enable-background:new 0 0 16 16;" xml:space="preserve">
<style type="text/css">
	.st0{fill-rule:evenodd;clip-rule:evenodd;fill:#0093FF;}
	.st1{fill-rule:evenodd;clip-rule:evenodd;fill:#FFD391;}
</style>
<title>图书库备份</title>
<path id="矩形" class="st0" d="M6.4,0h3.2c2.2,0,3,0.2,3.9,0.7c0.8,0.4,1.5,1.1,1.9,1.9C15.8,3.4,16,4.2,16,6.4v3.2
	c0,2.2-0.2,3-0.7,3.9c-0.4,0.8-1.1,1.5-1.9,1.9c-0.8,0.4-1.6,0.7-3.9,0.7H6.4c-2.2,0-3-0.2-3.9-0.7c-0.8-0.4-1.5-1.1-1.9-1.9
	C0.2,12.6,0,11.8,0,9.6V6.4c0-2.2,0.2-3,0.7-3.9s1.1-1.5,1.9-1.9S4.2,0,6.4,0z"/>
<polygon id="矩形备份" class="st1" points="8,2 12,2 12,7 10,6 8,7 "/>
</svg>
